<svg xmlns="http://www.w3.org/2000/svg" viewBox="0 0 1600 900" preserveAspectRatio="xMidYMid slice">
<defs>
  <linearGradient id="sky" x1="0" y1="0" x2="0" y2="1">
    <stop offset="0" stop-color="#160f38"/>
    <stop offset=".45" stop-color="#3a2a5e"/>
    <stop offset=".75" stop-color="#7a4a6b"/>
    <stop offset="1" stop-color="#c98a5f"/>
  </linearGradient>
  <linearGradient id="dune1" x1="0" y1="0" x2="0" y2="1">
    <stop offset="0" stop-color="#c99a5f"/>
    <stop offset="1" stop-color="#a5763f"/>
  </linearGradient>
  <linearGradient id="dune2" x1="0" y1="0" x2="0" y2="1">
    <stop offset="0" stop-color="#a5763f"/>
    <stop offset="1" stop-color="#7c5426"/>
  </linearGradient>
  <linearGradient id="dune3" x1="0" y1="0" x2="0" y2="1">
    <stop offset="0" stop-color="#7c5426"/>
    <stop offset="1" stop-color="#5c3c18"/>
  </linearGradient>
  <linearGradient id="stone" x1="0" y1="0" x2="0" y2="1">
    <stop offset="0" stop-color="#8a6a4a"/>
    <stop offset="1" stop-color="#5e422a"/>
  </linearGradient>
  <radialGradient id="lamp" cx=".5" cy=".5" r=".5">
    <stop offset="0" stop-color="#ffd98a" stop-opacity=".9"/>
    <stop offset="1" stop-color="#ffd98a" stop-opacity="0"/>
  </radialGradient>
  <radialGradient id="vig" cx=".5" cy=".45" r=".82">
    <stop offset=".55" stop-color="#000" stop-opacity="0"/>
    <stop offset="1" stop-color="#1a0e20" stop-opacity=".55"/>
  </radialGradient>
  <filter id="soft" x="-40%" y="-40%" width="180%" height="180%"><feGaussianBlur stdDeviation="10"/></filter>
</defs>

<rect width="1600" height="900" fill="url(#sky)"/>

<g fill="#ffffff">
  <circle cx="180" cy="90" r="1.6" opacity=".8"/><circle cx="420" cy="60" r="1.2" opacity=".6"/>
  <circle cx="700" cy="120" r="1.5" opacity=".75"/><circle cx="980" cy="70" r="1.7" opacity=".85"/>
  <circle cx="1240" cy="140" r="1.2" opacity=".6"/><circle cx="1460" cy="80" r="1.6" opacity=".8"/>
  <circle cx="300" cy="200" r="1.3" opacity=".6"/><circle cx="860" cy="210" r="1.3" opacity=".6"/>
  <circle cx="1360" cy="230" r="1.4" opacity=".65"/><circle cx="560" cy="160" r="1.4" opacity=".7"/>
</g>
<g fill="#ffe9c9">
  <circle cx="260" cy="130" r="2.6" opacity=".9"/><circle cx="1140" cy="110" r="2.4" opacity=".85"/>
  <circle cx="620" cy="80" r="2.2" opacity=".8"/>
</g>
<g stroke="#e8c9a8" stroke-width="2" stroke-linecap="round" opacity=".35">
  <path d="M1480 160 L1530 140"/><path d="M520 100 L560 84"/>
</g>

<path d="M0 560 Q400 500 800 548 T1600 540 V640 H0 Z" fill="url(#dune1)"/>
<path d="M0 560 Q400 500 800 548 T1600 540" fill="none" stroke="#e8c998" stroke-width="2.5" opacity=".6"/>

<g>
  <path d="M660 660 L660 460 q0 -20 20 -20 l240 0 q20 0 20 20 L940 660 Z" fill="url(#stone)"/>
  <path d="M680 660 L680 480 q0 -10 10 -10 l200 0 q10 0 10 10 L900 660 Z" fill="#2e1d10"/>
  <path d="M640 440 L660 460 L660 440 Z" fill="#5e422a"/>
  <path d="M940 440 L960 460 L940 460 Z" fill="#5e422a"/>
  <rect x="640" y="428" width="320" height="18" rx="6" fill="#8a6a4a"/>
  <path d="M660 428 L800 384 L940 428 Z" fill="#7c5c3c"/>
  <g stroke="#c9a86a" stroke-width="2" opacity=".6">
    <path d="M800 400 L800 428"/><path d="M730 412 L740 428"/><path d="M870 412 L860 428"/>
  </g>
  <g fill="#ffd98a" opacity=".85">
    <circle cx="760" cy="540" r="5"/><circle cx="840" cy="540" r="5"/>
    <circle cx="800" cy="580" r="5"/>
  </g>
</g>
<ellipse cx="800" cy="560" rx="230" ry="110" fill="url(#lamp)"/>

<path d="M0 680 Q300 620 620 668 T1240 660 Q1440 630 1600 664 V780 H0 Z" fill="url(#dune2)"/>
<path d="M0 680 Q300 620 620 668 T1240 660" fill="none" stroke="#d9ab72" stroke-width="2" opacity=".5"/>

<path d="M0 800 Q400 740 800 788 T1600 780 V900 H0 Z" fill="url(#dune3)"/>
<path d="M0 800 Q400 740 800 788 T1600 780" fill="none" stroke="#a57a44" stroke-width="2" opacity=".55"/>
<path d="M980 800 Q1200 760 1420 796" fill="none" stroke="#4a2f12" stroke-width="2" opacity=".5"/>

<g stroke="#4a2f12" stroke-width="4" stroke-linecap="round" fill="none" opacity=".9">
  <path d="M200 900 q-10 -70 14 -100"/><path d="M208 820 q-26 -14 -36 -38"/>
  <path d="M210 824 q26 -16 36 -42"/><path d="M1400 900 q-10 -66 12 -94"/>
  <path d="M1408 830 q-24 -14 -34 -36"/><path d="M1410 834 q24 -16 34 -40"/>
  <path d="M1240 900 q-6 -50 8 -70"/><path d="M380 900 q-6 -54 8 -76"/>
</g>

<g fill="#e8c998" opacity=".55">
  <circle cx="300" cy="600" r="2.4"/><circle cx="520" cy="640" r="2"/>
  <circle cx="1080" cy="620" r="2.4"/><circle cx="1300" cy="660" r="2"/>
  <circle cx="700" cy="700" r="2.2"/><circle cx="1460" cy="700" r="2.2"/>
  <circle cx="160" cy="700" r="2.2"/><circle cx="900" cy="720" r="2"/>
</g>

<g opacity=".3">
  <ellipse cx="400" cy="620" rx="600" ry="60" fill="#e8c9a8" filter="url(#soft)"/>
  <ellipse cx="1200" cy="760" rx="700" ry="70" fill="#e8c9a8" filter="url(#soft)"/>
</g>

<rect width="1600" height="900" fill="url(#vig)"/>
</svg>
