<svg xmlns="http://www.w3.org/2000/svg" viewBox="0 0 1600 900" preserveAspectRatio="xMidYMid slice">
<defs>
  <linearGradient id="sky" x1="0" y1="0" x2="0" y2="1">
    <stop offset="0" stop-color="#2f6fb0"/>
    <stop offset=".45" stop-color="#74a8cf"/>
    <stop offset=".78" stop-color="#c8d9c2"/>
    <stop offset="1" stop-color="#e8e3ae"/>
  </linearGradient>
  <radialGradient id="sun" cx=".5" cy=".5" r=".5">
    <stop offset="0" stop-color="#fffbdf"/>
    <stop offset=".35" stop-color="#ffe9a0" stop-opacity=".8"/>
    <stop offset="1" stop-color="#ffe9a0" stop-opacity="0"/>
  </radialGradient>
  <linearGradient id="mt" x1="0" y1="0" x2="0" y2="1">
    <stop offset="0" stop-color="#8ea9c8"/><stop offset="1" stop-color="#b5c4c2"/>
  </linearGradient>
  <linearGradient id="grass1" x1="0" y1="0" x2="0" y2="1">
    <stop offset="0" stop-color="#a8c86e"/><stop offset="1" stop-color="#8db95c"/>
  </linearGradient>
  <linearGradient id="grass2" x1="0" y1="0" x2="0" y2="1">
    <stop offset="0" stop-color="#93b94f"/><stop offset="1" stop-color="#6fa043"/>
  </linearGradient>
  <linearGradient id="grass3" x1="0" y1="0" x2="0" y2="1">
    <stop offset="0" stop-color="#7ca83e"/><stop offset="1" stop-color="#557f31"/>
  </linearGradient>
  <radialGradient id="vig" cx=".5" cy=".45" r=".8">
    <stop offset=".6" stop-color="#000" stop-opacity="0"/>
    <stop offset="1" stop-color="#2c3a10" stop-opacity=".4"/>
  </radialGradient>
</defs>

<rect width="1600" height="900" fill="url(#sky)"/>
<circle cx="1180" cy="240" r="260" fill="url(#sun)"/>
<circle cx="1180" cy="240" r="46" fill="#fffbe0"/>

<g fill="#ffffff" opacity=".8">
  <ellipse cx="360" cy="170" rx="150" ry="22"/><ellipse cx="440" cy="152" rx="90" ry="16"/>
  <ellipse cx="820" cy="120" rx="120" ry="16"/><ellipse cx="1440" cy="320" rx="110" ry="14"/>
  <ellipse cx="160" cy="360" rx="90" ry="12" opacity=".7"/>
</g>

<path d="M0 520 L180 430 L320 500 L520 400 L700 505 L880 420 L1060 505 L1260 415 L1440 500 L1600 440 V560 H0 Z" fill="url(#mt)"/>
<path d="M520 400 L560 420 L540 470 L590 445 L620 505" fill="none" stroke="#f4f7f4" stroke-width="6" opacity=".6" stroke-linecap="round"/>
<path d="M1260 415 L1300 440 L1275 490 L1325 460" fill="none" stroke="#f4f7f4" stroke-width="5" opacity=".5" stroke-linecap="round"/>

<path d="M0 560 Q300 520 620 552 T1240 548 Q1440 540 1600 556 V680 H0 Z" fill="url(#grass1)"/>
<path d="M0 640 Q400 600 820 636 T1600 630 V780 H0 Z" fill="url(#grass2)"/>
<path d="M0 750 Q400 700 800 742 T1600 740 V900 H0 Z" fill="url(#grass3)"/>
<path d="M0 750 Q400 700 800 742 T1600 740" fill="none" stroke="#c8e08a" stroke-width="2.5" opacity=".6"/>

<g stroke="#ffffff" fill="none" stroke-linecap="round" opacity=".5">
  <path d="M300 640 q140 -20 280 -2" stroke-width="6"/>
  <path d="M860 600 q120 -18 240 0" stroke-width="5"/>
  <path d="M500 720 q160 -22 320 -4" stroke-width="6"/>
  <path d="M1150 730 q120 -16 240 0" stroke-width="5"/>
  <path d="M120 540 q100 -12 200 -2" stroke-width="4"/>
</g>

<g stroke="#3f6626" stroke-width="4.5" stroke-linecap="round" fill="none" opacity=".95">
  <path d="M100 900 q-6 -80 10 -120"/><path d="M104 806 q-30 -10 -44 -36"/>
  <path d="M106 810 q30 -12 44 -38"/><path d="M320 900 q-4 -70 12 -100"/>
  <path d="M326 822 q-26 -10 -38 -32"/><path d="M328 826 q26 -12 38 -34"/>
  <path d="M620 900 q-6 -76 10 -110"/><path d="M626 812 q-28 -10 -42 -34"/>
  <path d="M628 816 q28 -12 42 -36"/><path d="M940 900 q-4 -66 12 -92"/>
  <path d="M946 826 q-24 -8 -36 -28"/><path d="M948 830 q24 -10 34 -30"/>
  <path d="M1240 900 q-6 -78 10 -112"/><path d="M1246 810 q-28 -10 -40 -34"/>
  <path d="M1248 814 q28 -12 40 -36"/><path d="M1480 900 q-4 -64 10 -90"/>
</g>
<g stroke="#547d31" stroke-width="3" stroke-linecap="round" fill="none" opacity=".8">
  <path d="M200 870 q-4 -40 6 -58"/><path d="M204 830 q-16 -6 -24 -20"/>
  <path d="M460 880 q-2 -36 8 -52"/><path d="M464 846 q-14 -6 -20 -18"/>
  <path d="M780 876 q-4 -38 6 -56"/><path d="M784 836 q-16 -6 -22 -20"/>
  <path d="M1100 880 q-2 -34 8 -50"/><path d="M1104 850 q-12 -6 -18 -16"/>
</g>

<g fill="#fffbe8" opacity=".85">
  <circle cx="430" cy="620" r="3"/><circle cx="490" cy="640" r="2.4"/>
  <circle cx="900" cy="660" r="3"/><circle cx="960" cy="680" r="2.2"/>
  <circle cx="1330" cy="620" r="3"/><circle cx="1380" cy="645" r="2.4"/>
  <circle cx="680" cy="690" r="2.6"/><circle cx="1160" cy="690" r="2.4"/>
</g>
<g fill="#e8d9a0" opacity=".7">
  <circle cx="360" cy="580" r="2.2"/><circle cx="840" cy="610" r="2"/>
  <circle cx="1280" cy="580" r="2.2"/><circle cx="620" cy="640" r="2"/>
</g>

<g fill="#4a4536" opacity=".75">
  <path d="M700 330 q14 -8 24 0 q-8 10 -24 0 Z"/>
  <path d="M760 300 q12 -7 21 0 q-7 9 -21 0 Z"/>
  <path d="M820 330 q11 -6 19 0 q-7 8 -19 0 Z"/>
  <path d="M740 272 q10 -6 17 0 q-6 7 -17 0 Z"/>
  <path d="M1310 380 q13 -7 22 0 q-8 9 -22 0 Z"/>
  <path d="M1360 356 q11 -6 19 0 q-7 8 -19 0 Z"/>
</g>

<rect width="1600" height="900" fill="url(#vig)"/>
</svg>
